<svg width="242" height="165" viewBox="0 0 242 165" fill="none" xmlns="http://www.w3.org/2000/svg">
<g clip-path="url(#clip0_3_94)">
<path d="M153.065 46.1689H123.048V39.6874C123.048 39.2762 122.884 38.8819 122.593 38.5912C122.302 38.3004 121.907 38.1371 121.495 38.1371H112.68V31.233C112.68 30.9742 112.577 30.7259 112.394 30.5429C112.21 30.3599 111.962 30.257 111.702 30.257H100.348C100.089 30.257 99.8399 30.3599 99.6566 30.5429C99.4733 30.7259 99.3703 30.9742 99.3703 31.233V38.1394H89.0074C88.5955 38.1394 88.2005 38.3028 87.9093 38.5935C87.618 38.8842 87.4544 39.2786 87.4544 39.6897V46.1712H58.8307C58.7474 46.1718 58.6677 46.2053 58.609 46.2644C58.5503 46.3234 58.5173 46.4032 58.5173 46.4864V132.527C58.5173 132.61 58.5503 132.69 58.609 132.749C58.6677 132.808 58.7474 132.842 58.8307 132.842H77.854C77.9377 132.842 78.018 132.809 78.0772 132.75C78.1364 132.691 78.1697 132.611 78.1697 132.527V120.951C78.1703 120.868 78.2038 120.788 78.2628 120.729C78.3219 120.67 78.4019 120.637 78.4854 120.636H86.5213C86.6048 120.637 86.6848 120.67 86.7439 120.729C86.8029 120.788 86.8364 120.868 86.837 120.951V132.527C86.837 132.61 86.87 132.69 86.9287 132.749C86.9874 132.808 87.0671 132.842 87.1504 132.842H124.741C124.824 132.842 124.904 132.808 124.963 132.749C125.022 132.69 125.056 132.611 125.057 132.527V120.951C125.057 120.868 125.089 120.788 125.148 120.729C125.207 120.67 125.287 120.637 125.37 120.636H133.406C133.49 120.636 133.57 120.669 133.629 120.728C133.688 120.787 133.722 120.868 133.722 120.951V132.527C133.722 132.611 133.756 132.69 133.815 132.749C133.874 132.808 133.954 132.842 134.037 132.842H153.061C153.144 132.842 153.224 132.808 153.283 132.749C153.342 132.69 153.376 132.611 153.376 132.527V46.4841C153.376 46.4015 153.343 46.3223 153.285 46.2635C153.227 46.2046 153.148 46.1707 153.065 46.1689ZM74.7645 116.615C74.7645 116.698 74.7315 116.778 74.6727 116.837C74.6139 116.895 74.5342 116.928 74.4511 116.928H62.7013C62.66 116.929 62.619 116.921 62.5807 116.905C62.5424 116.889 62.5076 116.866 62.4782 116.837C62.4489 116.808 62.4256 116.774 62.4097 116.736C62.3938 116.698 62.3856 116.657 62.3856 116.615V112.62C62.3856 112.579 62.3938 112.538 62.4096 112.5C62.4255 112.462 62.4487 112.427 62.4781 112.398C62.5074 112.368 62.5422 112.345 62.5805 112.329C62.6188 112.313 62.6599 112.305 62.7013 112.305H74.4581C74.5414 112.306 74.6212 112.339 74.6799 112.398C74.7386 112.457 74.7715 112.537 74.7715 112.62L74.7645 116.615ZM74.7645 106.263C74.7648 106.304 74.7569 106.345 74.7413 106.383C74.7257 106.421 74.7027 106.456 74.6735 106.485C74.6444 106.515 74.6097 106.538 74.5716 106.554C74.5334 106.57 74.4925 106.578 74.4511 106.578H62.7013C62.6598 106.578 62.6186 106.57 62.5801 106.555C62.5417 106.539 62.5068 106.516 62.4774 106.486C62.448 106.457 62.4247 106.422 62.409 106.384C62.3932 106.345 62.3853 106.304 62.3856 106.263V102.258C62.3853 102.217 62.3932 102.176 62.409 102.137C62.4247 102.099 62.448 102.064 62.4774 102.035C62.5068 102.006 62.5417 101.982 62.5801 101.967C62.6186 101.951 62.6598 101.943 62.7013 101.943H74.4581C74.4995 101.943 74.5404 101.951 74.5786 101.967C74.6168 101.983 74.6514 102.006 74.6805 102.036C74.7097 102.065 74.7327 102.1 74.7483 102.138C74.7639 102.176 74.7718 102.217 74.7715 102.258L74.7645 106.263ZM74.7645 95.9124C74.7645 95.9956 74.7315 96.0754 74.6728 96.1345C74.6141 96.1935 74.5344 96.227 74.4511 96.2276H62.7013C62.6599 96.2276 62.6188 96.2195 62.5805 96.2036C62.5422 96.1878 62.5074 96.1646 62.4781 96.1353C62.4487 96.106 62.4255 96.0713 62.4096 96.033C62.3938 95.9948 62.3856 95.9538 62.3856 95.9124V91.9058C62.3856 91.8644 62.3938 91.8235 62.4096 91.7852C62.4255 91.747 62.4487 91.7122 62.4781 91.683C62.5074 91.6537 62.5422 91.6305 62.5805 91.6146C62.6188 91.5988 62.6599 91.5906 62.7013 91.5906H74.4581C74.5414 91.5913 74.6212 91.6247 74.6799 91.6838C74.7386 91.7428 74.7715 91.8226 74.7715 91.9058L74.7645 95.9124ZM74.7645 85.5598C74.7648 85.6011 74.7569 85.642 74.7413 85.6802C74.7257 85.7185 74.7027 85.7532 74.6735 85.7825C74.6444 85.8118 74.6097 85.8351 74.5716 85.8509C74.5334 85.8668 74.4925 85.875 74.4511 85.875H62.7013C62.6598 85.8753 62.6186 85.8674 62.5801 85.8516C62.5417 85.8359 62.5068 85.8127 62.4774 85.7834C62.448 85.754 62.4247 85.7192 62.409 85.6808C62.3932 85.6424 62.3853 85.6013 62.3856 85.5598V81.5672C62.3853 81.5257 62.3932 81.4846 62.409 81.4462C62.4247 81.4079 62.448 81.373 62.4774 81.3437C62.5068 81.3143 62.5417 81.2911 62.5801 81.2754C62.6186 81.2597 62.6598 81.2517 62.7013 81.252H74.4581C74.4995 81.252 74.5404 81.2602 74.5786 81.2761C74.6168 81.2919 74.6514 81.3152 74.6805 81.3445C74.7097 81.3738 74.7327 81.4086 74.7483 81.4468C74.7639 81.485 74.7718 81.5259 74.7715 81.5672L74.7645 85.5598ZM74.7645 75.2095C74.7645 75.2927 74.7315 75.3725 74.6728 75.4315C74.6141 75.4906 74.5344 75.5241 74.4511 75.5247H62.7013C62.6599 75.5247 62.6188 75.5165 62.5805 75.5007C62.5422 75.4849 62.5074 75.4616 62.4781 75.4324C62.4487 75.4031 62.4255 75.3684 62.4096 75.3301C62.3938 75.2919 62.3856 75.2509 62.3856 75.2095V71.2029C62.3856 71.1616 62.3938 71.1208 62.4097 71.0826C62.4256 71.0445 62.4489 71.0099 62.4782 70.9809C62.5076 70.9518 62.5424 70.9288 62.5807 70.9132C62.619 70.8976 62.66 70.8897 62.7013 70.8901H74.4581C74.5412 70.8901 74.6209 70.923 74.6797 70.9817C74.7385 71.0404 74.7715 71.1199 74.7715 71.2029L74.7645 75.2095ZM74.7645 64.8592C74.7645 64.9422 74.7315 65.0217 74.6727 65.0804C74.6139 65.1391 74.5342 65.1721 74.4511 65.1721H62.7013C62.66 65.1724 62.619 65.1645 62.5807 65.1489C62.5424 65.1333 62.5076 65.1103 62.4782 65.0813C62.4489 65.0522 62.4256 65.0176 62.4097 64.9795C62.3938 64.9413 62.3856 64.9005 62.3856 64.8592V60.8526C62.3856 60.8112 62.3938 60.7702 62.4096 60.732C62.4255 60.6938 62.4487 60.659 62.4781 60.6297C62.5074 60.6005 62.5422 60.5773 62.5805 60.5614C62.6188 60.5456 62.6599 60.5374 62.7013 60.5374H74.4581C74.5414 60.538 74.6212 60.5715 74.6799 60.6306C74.7386 60.6896 74.7715 60.7694 74.7715 60.8526L74.7645 64.8592ZM74.7645 54.5066C74.7648 54.5478 74.7569 54.5888 74.7413 54.627C74.7257 54.6652 74.7027 54.7 74.6735 54.7293C74.6444 54.7586 74.6097 54.7819 74.5716 54.7977C74.5334 54.8136 74.4925 54.8218 74.4511 54.8218H62.7013C62.6598 54.8221 62.6186 54.8141 62.5801 54.7984C62.5417 54.7827 62.5068 54.7595 62.4774 54.7301C62.448 54.7008 62.4247 54.6659 62.409 54.6276C62.3932 54.5892 62.3853 54.548 62.3856 54.5066V50.514C62.3853 50.4725 62.3932 50.4314 62.409 50.393C62.4247 50.3546 62.448 50.3198 62.4774 50.2904C62.5068 50.2611 62.5417 50.2379 62.5801 50.2222C62.6186 50.2064 62.6598 50.1985 62.7013 50.1988H74.4581C74.4995 50.1988 74.5404 50.207 74.5786 50.2228C74.6168 50.2387 74.6514 50.262 74.6805 50.2913C74.7097 50.3206 74.7327 50.3553 74.7483 50.3936C74.7639 50.4318 74.7718 50.4727 74.7715 50.514L74.7645 54.5066ZM102.621 116.613C102.621 116.654 102.613 116.695 102.597 116.733C102.581 116.771 102.558 116.806 102.528 116.835C102.499 116.864 102.464 116.887 102.426 116.903C102.388 116.918 102.347 116.926 102.305 116.926H90.5556C90.4723 116.926 90.3923 116.893 90.3332 116.834C90.274 116.776 90.2405 116.696 90.2399 116.613V112.62C90.2405 112.537 90.2739 112.457 90.333 112.398C90.3921 112.339 90.472 112.306 90.5556 112.305H102.305C102.347 112.305 102.388 112.313 102.426 112.329C102.465 112.345 102.499 112.368 102.529 112.398C102.558 112.427 102.581 112.462 102.597 112.5C102.613 112.538 102.621 112.579 102.621 112.62V116.613ZM102.621 106.26C102.621 106.302 102.613 106.343 102.598 106.381C102.582 106.42 102.559 106.455 102.529 106.484C102.5 106.513 102.465 106.536 102.427 106.552C102.388 106.568 102.347 106.576 102.305 106.576H90.5556C90.4719 106.576 90.3916 106.542 90.3323 106.483C90.2731 106.424 90.2399 106.344 90.2399 106.26V102.258C90.2399 102.175 90.2731 102.095 90.3323 102.036C90.3916 101.976 90.4719 101.943 90.5556 101.943H102.305C102.347 101.943 102.388 101.951 102.427 101.967C102.465 101.982 102.5 102.006 102.529 102.035C102.559 102.064 102.582 102.099 102.598 102.137C102.613 102.176 102.621 102.217 102.621 102.258V106.26ZM102.621 95.9101C102.621 95.9515 102.613 95.9925 102.597 96.0307C102.581 96.0689 102.558 96.1037 102.529 96.133C102.499 96.1622 102.465 96.1854 102.426 96.2013C102.388 96.2171 102.347 96.2253 102.305 96.2253H90.5556C90.472 96.2247 90.3921 96.1913 90.333 96.1323C90.2739 96.0733 90.2405 95.9935 90.2399 95.9101V91.9058C90.2405 91.8224 90.2739 91.7426 90.333 91.6836C90.3921 91.6247 90.472 91.5913 90.5556 91.5906H102.305C102.347 91.5906 102.388 91.5988 102.426 91.6146C102.465 91.6305 102.499 91.6537 102.529 91.683C102.558 91.7122 102.581 91.747 102.597 91.7852C102.613 91.8235 102.621 91.8644 102.621 91.9058V95.9101ZM102.621 85.5574C102.621 85.5989 102.613 85.6401 102.598 85.6784C102.582 85.7168 102.559 85.7517 102.529 85.781C102.5 85.8103 102.465 85.8336 102.427 85.8493C102.388 85.865 102.347 85.873 102.305 85.8727H90.5556C90.4719 85.8727 90.3916 85.8394 90.3323 85.7803C90.2731 85.7212 90.2399 85.641 90.2399 85.5574V81.5672C90.2399 81.4836 90.2731 81.4035 90.3323 81.3443C90.3916 81.2852 90.4719 81.252 90.5556 81.252H102.305C102.347 81.2517 102.388 81.2597 102.427 81.2754C102.465 81.2911 102.5 81.3143 102.529 81.3437C102.559 81.373 102.582 81.4079 102.598 81.4462C102.613 81.4846 102.621 81.5257 102.621 81.5672V85.5574ZM102.621 75.2072C102.621 75.2485 102.613 75.2895 102.597 75.3278C102.581 75.366 102.558 75.4008 102.529 75.43C102.499 75.4593 102.465 75.4825 102.426 75.4984C102.388 75.5142 102.347 75.5224 102.305 75.5224H90.5556C90.472 75.5217 90.3921 75.4883 90.333 75.4294C90.2739 75.3704 90.2405 75.2906 90.2399 75.2072V71.2029C90.2405 71.1197 90.274 71.0402 90.3332 70.9815C90.3923 70.9229 90.4723 70.89 90.5556 70.8901H102.305C102.347 70.8897 102.388 70.8976 102.426 70.9132C102.464 70.9288 102.499 70.9518 102.528 70.9809C102.558 71.0099 102.581 71.0445 102.597 71.0826C102.613 71.1208 102.621 71.1616 102.621 71.2029V75.2072ZM102.621 64.8569C102.621 64.8981 102.613 64.939 102.597 64.9771C102.581 65.0152 102.558 65.0498 102.528 65.0789C102.499 65.108 102.464 65.131 102.426 65.1466C102.388 65.1622 102.347 65.17 102.305 65.1697H90.5556C90.4723 65.1697 90.3923 65.1368 90.3332 65.0782C90.274 65.0196 90.2405 64.94 90.2399 64.8569V60.8526C90.2405 60.7692 90.2739 60.6894 90.333 60.6304C90.3921 60.5714 90.472 60.538 90.5556 60.5374H102.305C102.347 60.5374 102.388 60.5456 102.426 60.5614C102.465 60.5773 102.499 60.6005 102.529 60.6297C102.558 60.659 102.581 60.6938 102.597 60.732C102.613 60.7702 102.621 60.8112 102.621 60.8526V64.8569ZM102.621 54.5042C102.621 54.5457 102.613 54.5868 102.598 54.6252C102.582 54.6636 102.559 54.6985 102.529 54.7278C102.5 54.7571 102.465 54.7803 102.427 54.7961C102.388 54.8118 102.347 54.8197 102.305 54.8194H90.5556C90.4719 54.8194 90.3916 54.7862 90.3323 54.7271C90.2731 54.668 90.2399 54.5878 90.2399 54.5042V50.514C90.2399 50.4304 90.2731 50.3502 90.3323 50.2911C90.3916 50.232 90.4719 50.1988 90.5556 50.1988H102.305C102.347 50.1985 102.388 50.2064 102.427 50.2222C102.465 50.2379 102.5 50.2611 102.529 50.2904C102.559 50.3198 102.582 50.3546 102.598 50.393C102.613 50.4314 102.621 50.4725 102.621 50.514V54.5042ZM121.656 116.611C121.656 116.652 121.648 116.693 121.632 116.731C121.616 116.769 121.593 116.804 121.563 116.833C121.534 116.862 121.499 116.885 121.461 116.9C121.423 116.916 121.382 116.924 121.34 116.924H109.591C109.507 116.924 109.427 116.891 109.368 116.832C109.309 116.773 109.275 116.694 109.275 116.611V112.62C109.275 112.537 109.309 112.457 109.368 112.398C109.427 112.339 109.507 112.306 109.591 112.305H121.34C121.424 112.305 121.504 112.338 121.564 112.398C121.623 112.457 121.656 112.537 121.656 112.62V116.611ZM121.656 106.258C121.656 106.3 121.648 106.341 121.633 106.379C121.617 106.417 121.594 106.452 121.564 106.482C121.535 106.511 121.5 106.534 121.461 106.55C121.423 106.566 121.382 106.574 121.34 106.573H109.591C109.507 106.573 109.426 106.54 109.367 106.481C109.308 106.422 109.275 106.342 109.275 106.258V102.258C109.275 102.175 109.308 102.095 109.367 102.036C109.426 101.976 109.507 101.943 109.591 101.943H121.34C121.382 101.943 121.423 101.951 121.461 101.967C121.5 101.982 121.535 102.006 121.564 102.035C121.594 102.064 121.617 102.099 121.633 102.137C121.648 102.176 121.656 102.217 121.656 102.258V106.258ZM121.656 95.9077C121.656 95.9913 121.623 96.0715 121.564 96.1306C121.504 96.1897 121.424 96.2229 121.34 96.2229H109.591C109.507 96.2223 109.427 96.1889 109.368 96.13C109.309 96.071 109.275 95.9911 109.275 95.9077V91.9058C109.275 91.8224 109.309 91.7426 109.368 91.6836C109.427 91.6247 109.507 91.5913 109.591 91.5906H121.34C121.424 91.5906 121.504 91.6238 121.564 91.683C121.623 91.7421 121.656 91.8222 121.656 91.9058V95.9077ZM121.656 85.5551C121.656 85.5966 121.648 85.6377 121.633 85.6761C121.617 85.7145 121.594 85.7494 121.564 85.7787C121.535 85.808 121.5 85.8312 121.461 85.847C121.423 85.8627 121.382 85.8706 121.34 85.8703H109.591C109.507 85.8703 109.426 85.8371 109.367 85.778C109.308 85.7189 109.275 85.6387 109.275 85.5551V81.5672C109.275 81.4836 109.308 81.4035 109.367 81.3443C109.426 81.2852 109.507 81.252 109.591 81.252H121.34C121.382 81.2517 121.423 81.2597 121.461 81.2754C121.5 81.2911 121.535 81.3143 121.564 81.3437C121.594 81.373 121.617 81.4079 121.633 81.4462C121.648 81.4846 121.656 81.5257 121.656 81.5672V85.5551ZM121.656 75.2048C121.656 75.2884 121.623 75.3686 121.564 75.4277C121.504 75.4868 121.424 75.52 121.34 75.52H109.591C109.507 75.5194 109.427 75.486 109.368 75.427C109.309 75.368 109.275 75.2882 109.275 75.2048V71.2029C109.275 71.1197 109.309 71.0402 109.368 70.9815C109.427 70.9229 109.507 70.89 109.591 70.8901H121.34C121.382 70.8897 121.423 70.8976 121.461 70.9132C121.499 70.9288 121.534 70.9518 121.563 70.9809C121.593 71.0099 121.616 71.0445 121.632 71.0826C121.648 71.1208 121.656 71.1616 121.656 71.2029V75.2048ZM121.656 64.8545C121.656 64.8958 121.648 64.9367 121.632 64.9748C121.616 65.0129 121.593 65.0475 121.563 65.0766C121.534 65.1057 121.499 65.1287 121.461 65.1442C121.423 65.1598 121.382 65.1677 121.34 65.1674H109.591C109.507 65.1674 109.427 65.1345 109.368 65.0759C109.309 65.0173 109.275 64.9377 109.275 64.8545V60.8526C109.275 60.7692 109.309 60.6894 109.368 60.6304C109.427 60.5714 109.507 60.538 109.591 60.5374H121.34C121.424 60.5374 121.504 60.5706 121.564 60.6297C121.623 60.6889 121.656 60.769 121.656 60.8526V64.8545ZM121.656 54.5019C121.656 54.5434 121.648 54.5845 121.633 54.6229C121.617 54.6613 121.594 54.6961 121.564 54.7255C121.535 54.7548 121.5 54.778 121.461 54.7937C121.423 54.8095 121.382 54.8174 121.34 54.8171H109.591C109.507 54.8171 109.426 54.7839 109.367 54.7248C109.308 54.6657 109.275 54.5855 109.275 54.5019V50.514C109.275 50.4304 109.308 50.3502 109.367 50.2911C109.426 50.232 109.507 50.1988 109.591 50.1988H121.34C121.382 50.1985 121.423 50.2064 121.461 50.2222C121.5 50.2379 121.535 50.2611 121.564 50.2904C121.594 50.3198 121.617 50.3546 121.633 50.393C121.648 50.4314 121.656 50.4725 121.656 50.514V54.5019ZM149.513 116.608C149.512 116.692 149.478 116.771 149.419 116.83C149.36 116.888 149.28 116.921 149.197 116.921H137.447C137.406 116.922 137.365 116.914 137.326 116.898C137.288 116.882 137.253 116.859 137.224 116.83C137.195 116.801 137.171 116.767 137.155 116.729C137.14 116.69 137.131 116.65 137.131 116.608V112.62C137.131 112.537 137.165 112.457 137.224 112.398C137.283 112.338 137.363 112.305 137.447 112.305H149.197C149.28 112.306 149.36 112.339 149.419 112.398C149.479 112.457 149.512 112.537 149.513 112.62V116.608ZM149.513 106.256C149.513 106.339 149.479 106.419 149.42 106.479C149.361 106.538 149.281 106.571 149.197 106.571H137.447C137.406 106.571 137.364 106.563 137.326 106.548C137.287 106.532 137.253 106.509 137.223 106.479C137.194 106.45 137.171 106.415 137.155 106.377C137.139 106.338 137.131 106.297 137.131 106.256V102.258C137.131 102.217 137.139 102.176 137.155 102.137C137.171 102.099 137.194 102.064 137.223 102.035C137.253 102.006 137.287 101.982 137.326 101.967C137.364 101.951 137.406 101.943 137.447 101.943H149.197C149.281 101.943 149.361 101.976 149.42 102.036C149.479 102.095 149.513 102.175 149.513 102.258V106.256ZM149.513 95.9054C149.512 95.9888 149.479 96.0686 149.419 96.1276C149.36 96.1866 149.28 96.22 149.197 96.2206H137.447C137.363 96.2206 137.283 96.1874 137.224 96.1283C137.165 96.0692 137.131 95.989 137.131 95.9054V91.9058C137.131 91.8222 137.165 91.7421 137.224 91.683C137.283 91.6238 137.363 91.5906 137.447 91.5906H149.197C149.28 91.5913 149.36 91.6247 149.419 91.6836C149.479 91.7426 149.512 91.8224 149.513 91.9058V95.9054ZM149.513 85.5528C149.513 85.6364 149.479 85.7165 149.42 85.7757C149.361 85.8348 149.281 85.868 149.197 85.868H137.447C137.365 85.8674 137.287 85.8348 137.229 85.7772C137.171 85.7196 137.137 85.6415 137.136 85.5598V81.5672C137.136 81.5257 137.144 81.4846 137.159 81.4462C137.175 81.4079 137.198 81.373 137.228 81.3437C137.257 81.3143 137.292 81.2911 137.331 81.2754C137.369 81.2597 137.41 81.2517 137.452 81.252H149.202C149.285 81.252 149.366 81.2852 149.425 81.3443C149.484 81.4035 149.517 81.4836 149.517 81.5672L149.513 85.5528ZM149.513 75.2025C149.512 75.2859 149.479 75.3657 149.419 75.4247C149.36 75.4837 149.28 75.5171 149.197 75.5177H137.447C137.363 75.5177 137.283 75.4845 137.224 75.4254C137.165 75.3662 137.131 75.2861 137.131 75.2025V71.2029C137.131 71.1616 137.14 71.1208 137.155 71.0826C137.171 71.0445 137.195 71.0099 137.224 70.9809C137.253 70.9518 137.288 70.9288 137.326 70.9132C137.365 70.8976 137.406 70.8897 137.447 70.8901H149.197C149.28 70.89 149.36 70.9229 149.419 70.9815C149.478 71.0402 149.512 71.1197 149.513 71.2029V75.2025ZM149.513 64.8522C149.512 64.9354 149.478 65.0149 149.419 65.0736C149.36 65.1322 149.28 65.1651 149.197 65.1651H137.447C137.406 65.1654 137.365 65.1575 137.326 65.1419C137.288 65.1263 137.253 65.1033 137.224 65.0742C137.195 65.0452 137.171 65.0106 137.155 64.9725C137.14 64.9343 137.131 64.8935 137.131 64.8522V60.8526C137.131 60.769 137.165 60.6889 137.224 60.6297C137.283 60.5706 137.363 60.5374 137.447 60.5374H149.197C149.28 60.538 149.36 60.5714 149.419 60.6304C149.479 60.6894 149.512 60.7692 149.513 60.8526V64.8522ZM149.513 54.4996C149.513 54.541 149.504 54.5819 149.489 54.6202C149.473 54.6584 149.449 54.6932 149.42 54.7224C149.391 54.7517 149.356 54.7749 149.318 54.7908C149.279 54.8066 149.238 54.8148 149.197 54.8148H137.447C137.365 54.8142 137.287 54.7816 137.229 54.724C137.171 54.6664 137.137 54.5883 137.136 54.5066V50.514C137.136 50.4725 137.144 50.4314 137.159 50.393C137.175 50.3546 137.198 50.3198 137.228 50.2904C137.257 50.2611 137.292 50.2379 137.331 50.2222C137.369 50.2064 137.41 50.1985 137.452 50.1988H149.202C149.285 50.1988 149.366 50.232 149.425 50.2911C149.484 50.3502 149.517 50.4304 149.517 50.514L149.513 54.4996Z" fill="#F2F2F2"/>
<path d="M62.4791 10.3293L58.8494 12.6267L61.0525 8.62485C60.4287 8.12794 59.6568 7.85273 58.8588 7.84268H58.8003C58.5481 7.84645 58.2961 7.8277 58.0472 7.78664L56.8171 8.56414L57.3433 7.60686C56.4709 7.30319 55.7175 6.73093 55.1916 5.97248L52.9909 7.37338L54.3801 4.84943C53.0938 3.30611 51.3585 2.3605 49.4477 2.3605C47.1581 2.3605 45.1187 3.71937 43.802 5.83706C43.4127 6.47293 42.8609 6.99399 42.2034 7.34683C41.5458 7.69968 40.8061 7.87161 40.0601 7.84502H39.9385C37.4103 7.84502 35.3616 10.7075 35.3616 14.2354C35.3616 17.7634 37.4197 20.6282 39.9478 20.6282C40.5032 20.6253 41.0496 20.4883 41.5405 20.2289C42.4009 19.811 43.3422 19.5849 44.2989 19.5664C45.2556 19.5478 46.2049 19.7373 47.0809 20.1215C47.8218 20.4524 48.6244 20.6235 49.436 20.6235C50.2477 20.6235 51.0502 20.4524 51.7911 20.1215C52.6602 19.7453 53.6002 19.5601 54.5473 19.5786C55.4945 19.5972 56.4265 19.819 57.2801 20.2289C57.7668 20.4862 58.3081 20.6231 58.8588 20.6282C61.3869 20.6282 63.4357 17.7657 63.4357 14.2354C63.4507 12.8738 63.1217 11.5304 62.4791 10.3293Z" fill="#F2F2F2"/>
<path opacity="0.03" d="M55.6384 19.6803C54.3178 19.4292 52.9522 19.5772 51.7164 20.1052C50.9756 20.4353 50.1736 20.6059 49.3624 20.6059C48.5513 20.6059 47.7492 20.4353 47.0085 20.1052C46.1322 19.722 45.183 19.5331 44.2265 19.5517C43.2699 19.5702 42.3288 19.7957 41.468 20.2126C40.9769 20.4733 40.4293 20.6104 39.873 20.6119C37.6278 20.6119 35.7592 18.3541 35.371 15.3748C35.8198 15.0477 36.201 14.637 36.4936 14.1654C37.8103 12.0477 39.8496 10.6888 42.1393 10.6888C44.4289 10.6888 46.4425 12.0314 47.7522 14.128C48.1444 14.7613 48.694 15.2824 49.3477 15.6408C50.0014 15.9992 50.7368 16.1827 51.4825 16.1733H51.5409C53.3371 16.1617 54.8853 17.5929 55.6384 19.6803Z" fill="black"/>
<path d="M190.403 3.97621L188.588 5.12261L189.687 3.12634C189.376 2.87871 188.991 2.74154 188.593 2.73642H188.565C188.439 2.73889 188.313 2.72951 188.188 2.7084L187.575 3.09832L187.837 2.63135C187.403 2.47933 187.028 2.19515 186.764 1.81883L185.667 2.51928L186.369 1.26081C186.079 0.88098 185.708 0.570626 185.283 0.352472C184.857 0.134319 184.389 0.0138895 183.911 0C182.769 0 181.752 0.679435 181.104 1.73478C180.909 2.05228 180.633 2.31234 180.304 2.48834C179.976 2.66434 179.606 2.74996 179.233 2.73642H179.172C177.912 2.73642 176.89 4.163 176.89 5.92346C176.89 7.68392 177.912 9.1105 179.172 9.1105C179.45 9.1096 179.722 9.0415 179.968 8.91204C180.397 8.70391 180.866 8.59132 181.343 8.58205C181.82 8.57277 182.293 8.66704 182.73 8.85834C183.099 9.02311 183.5 9.10826 183.905 9.10826C184.31 9.10826 184.71 9.02311 185.08 8.85834C185.514 8.671 185.983 8.57884 186.455 8.58811C186.928 8.59737 187.393 8.70784 187.819 8.91204C188.061 9.03868 188.331 9.10514 188.604 9.10583C189.865 9.10583 190.887 7.67925 190.887 5.91879C190.891 5.24106 190.724 4.57322 190.403 3.97621Z" fill="#F2F2F2"/>
<path opacity="0.03" d="M186.991 8.63887C186.332 8.51513 185.65 8.58907 185.033 8.85134C184.665 9.0148 184.267 9.09912 183.864 9.09883C183.461 9.09676 183.063 9.01088 182.695 8.84667C182.257 8.65533 181.784 8.56104 181.306 8.57031C180.829 8.57958 180.36 8.6922 179.93 8.90037C179.685 9.03009 179.412 9.09821 179.135 9.09883C178.015 9.09883 177.084 7.97344 176.89 6.48616C177.114 6.32308 177.304 6.11858 177.451 5.88377C178.106 4.82843 179.123 4.14899 180.258 4.14899C181.392 4.14899 182.405 4.81909 183.064 5.86509C183.261 6.18246 183.536 6.44337 183.864 6.62224C184.192 6.80111 184.561 6.8918 184.935 6.88541H184.965C185.842 6.88541 186.614 7.59987 186.991 8.63887Z" fill="black"/>
<path d="M144.959 24.9733L142.831 26.3205L144.122 23.9857C143.757 23.6913 143.304 23.527 142.836 23.5187H142.8C142.652 23.5208 142.505 23.5099 142.358 23.486L141.638 23.953L141.947 23.3903C141.436 23.2126 140.994 22.8784 140.684 22.4354L139.393 23.2526L140.209 21.7723C139.866 21.3295 139.428 20.9686 138.928 20.7158C138.427 20.463 137.877 20.3246 137.316 20.3107C135.974 20.3107 134.776 21.1092 134.004 22.3513C133.775 22.7215 133.452 23.0244 133.068 23.2295C132.683 23.4345 132.251 23.5343 131.815 23.5187H131.743C130.26 23.5187 129.06 25.1975 129.06 27.2545C129.06 29.3114 130.26 31.0019 131.743 31.0019C132.069 31.0013 132.39 30.9211 132.678 30.7684C133.183 30.5236 133.735 30.3912 134.296 30.3803C134.857 30.3694 135.413 30.4803 135.927 30.7053C136.362 30.8985 136.832 30.9983 137.308 30.9983C137.784 30.9983 138.254 30.8985 138.689 30.7053C139.199 30.4848 139.75 30.3764 140.306 30.3872C140.862 30.3981 141.408 30.5281 141.909 30.7684C142.198 30.9201 142.519 31.0002 142.845 31.0019C144.328 31.0019 145.53 29.3254 145.53 27.2545C145.533 26.4584 145.337 25.6742 144.959 24.9733Z" fill="#F2F2F2"/>
<path opacity="0.03" d="M140.948 30.4578C140.173 30.3114 139.372 30.3983 138.647 30.7077C138.212 30.9008 137.742 31.0007 137.266 31.0007C136.79 31.0007 136.32 30.9008 135.885 30.7077C135.371 30.4827 134.815 30.3718 134.254 30.3827C133.693 30.3935 133.141 30.5259 132.636 30.7707C132.348 30.9232 132.027 31.0033 131.701 31.0042C130.384 31.0042 129.287 29.6803 129.06 27.9339C129.323 27.7448 129.546 27.5069 129.718 27.2334C130.489 25.9913 131.687 25.1951 133.029 25.1951C134.372 25.1951 135.555 25.982 136.327 27.2101C136.556 27.5817 136.879 27.8876 137.262 28.0979C137.645 28.3083 138.076 28.4159 138.514 28.4102H138.539C139.596 28.3938 140.506 29.2344 140.948 30.4578Z" fill="black"/>
<path d="M221.536 132.898C221.536 133.3 221.536 133.702 221.51 134.099C221.451 135.644 221.264 137.181 220.954 138.696C219.417 146.193 214.981 152.021 209.407 153.741C208.299 154.086 207.145 154.262 205.984 154.262C197.393 154.262 190.431 144.689 190.431 132.898C190.431 121.108 197.393 111.535 205.984 111.535C214.041 111.535 220.668 119.954 221.457 130.739C221.51 131.449 221.536 132.17 221.536 132.898Z" fill="#36334A"/>
<path opacity="0.1" d="M221.51 134.101C221.451 135.646 221.264 137.183 220.954 138.698C219.417 146.195 214.981 152.023 209.408 153.744C205.093 151.761 201.891 144.332 201.891 135.469C201.891 125.088 206.288 116.674 211.714 116.674C216.267 116.674 220.098 122.609 221.209 130.662C221.363 131.766 221.464 132.919 221.51 134.101Z" fill="black"/>
<path d="M143.423 85.6182C143.423 85.6182 185.52 76.9793 207.738 84.9177C207.738 84.9177 211.012 86.5521 207.738 89.3539C207.738 89.3539 210.834 92.6226 205.427 93.7901L183.946 95.1092L143.423 90.9883V85.6182Z" fill="#3F3D56"/>
<path opacity="0.1" d="M150.79 86.7039C150.79 86.7039 186.832 79.3071 205.855 86.1038C205.855 86.1038 208.661 87.5047 205.855 89.9026C205.855 89.9026 208.505 92.7044 203.876 93.7013L185.485 94.8291L150.79 91.3058V86.7039Z" fill="black"/>
<path d="M191.834 99.6271L189.028 94.0235C189.028 94.0235 190.258 88.3546 180.258 86.6875C179.703 84.2149 177.192 82.3494 174.177 82.3494C171.235 82.3494 168.774 84.1239 168.138 86.5054C166.702 86.6291 165.173 86.7973 163.536 87.0191L161.248 99.2629L160.963 98.6932C160.963 98.6932 162.415 91.9969 149.326 91.0186C150.039 90.1552 150.432 89.0723 150.439 87.953C150.439 84.9854 147.663 82.5829 144.241 82.5829C140.82 82.5829 138.044 84.9854 138.044 87.953C138.053 89.1721 138.516 90.3441 139.344 91.2404C138.12 91.3572 136.829 91.5066 135.471 91.6887L132.898 105.464L144.826 107.099L163.77 104.297L162.093 100.946L172.891 102.427L191.834 99.6271Z" fill="#F2D41D"/>
<path opacity="0.2" d="M191.834 99.6271L189.028 94.0235C189.028 94.0235 190.258 88.3546 180.258 86.6875C179.703 84.2149 177.192 82.3494 174.177 82.3494C171.235 82.3494 168.774 84.1239 168.138 86.5054C166.702 86.6291 165.173 86.7973 163.536 87.0191L161.248 99.2629L160.963 98.6932C160.963 98.6932 162.415 91.9969 149.326 91.0186C150.039 90.1552 150.432 89.0723 150.439 87.953C150.439 84.9854 147.663 82.5829 144.241 82.5829C140.82 82.5829 138.044 84.9854 138.044 87.953C138.053 89.1721 138.516 90.3441 139.344 91.2404C138.12 91.3572 136.829 91.5066 135.471 91.6887L132.898 105.464L144.826 107.099L163.77 104.297L162.093 100.946L172.891 102.427L191.834 99.6271Z" fill="black"/>
<path d="M151.603 87.2245C151.603 87.2245 149.732 76.7458 158.386 76.5123C167.039 76.2788 164.233 91.6887 164.233 91.6887C164.233 91.6887 170.781 93.0896 171.249 95.6579C171.717 98.2263 148.563 98.9267 148.563 98.9267L151.603 87.2245Z" fill="#F2D41D"/>
<path d="M136.406 142.588C136.406 154.963 127.192 165.002 115.826 165.002C104.459 165.002 95.2448 154.963 95.2448 142.588C95.2448 130.213 104.574 118.189 115.943 118.189C127.311 118.189 136.406 130.209 136.406 142.588Z" fill="#36334A"/>
<path opacity="0.1" d="M115.826 162.432C124.867 162.432 132.197 153.965 132.197 143.522C132.197 133.078 124.867 124.612 115.826 124.612C106.784 124.612 99.4545 133.078 99.4545 143.522C99.4545 153.965 106.784 162.432 115.826 162.432Z" fill="black"/>
<path d="M25.3168 162.899C36.6832 162.899 45.8976 152.863 45.8976 140.484C45.8976 128.105 36.6832 118.07 25.3168 118.07C13.9503 118.07 4.73596 128.105 4.73596 140.484C4.73596 152.863 13.9503 162.899 25.3168 162.899Z" fill="#36334A"/>
<path d="M60.3976 87.0191C60.3976 87.0191 50.8088 87.486 51.2766 92.6226C51.7443 97.7592 59.4621 94.0235 59.4621 94.0235L60.3976 87.0191Z" fill="#36334A"/>
<path d="M140.176 95.5762L144.124 69.2744C144.124 69.2744 145.06 66.0056 132.431 66.0056C132.431 66.0056 91.9705 63.4373 81.6801 67.64C81.6801 67.64 69.7526 72.0762 53.1476 94.9575C53.1476 94.9575 138.539 96.9771 140.176 95.5762Z" fill="#3F3D56"/>
<path d="M138.745 68.1069L131.495 96.8253L126.949 96.7156L105.432 96.1926L57.4439 95.0252C57.3106 92.7557 80.0361 69.2744 80.0361 69.2744L138.745 68.1069Z" fill="#36334A"/>
<path opacity="0.2" d="M105.439 96.1926L107.399 88.6277C107.399 88.6277 105.528 78.1467 114.181 77.9132C122.835 77.6797 120.028 93.0896 120.028 93.0896C120.028 93.0896 125.992 94.3668 126.941 96.7156L105.439 96.1926Z" fill="#F2D41D"/>
<path d="M221.653 131.264C220.25 117.722 211.48 114.804 211.48 114.804C203.06 114.337 197.447 146.324 197.447 146.324L132.664 152.161C132.664 152.161 134.886 124.96 119.217 120.524C103.547 116.088 99.4545 147.958 98.7528 152.394C98.0512 156.83 4.26818 151.927 1.69558 150.059C-0.877023 148.192 0.0584682 130.213 0.760087 128.812C1.46171 127.412 3.33269 121.108 3.33269 121.108C3.33269 119.604 4.05302 117.703 4.65173 116.384C5.0727 115.45 5.43755 114.804 5.43755 114.804C7.4699 103.297 18.0222 100.512 18.7309 100.328H18.7683C21.5748 97.5258 47.5347 95.6579 47.5347 95.6579L57.3573 93.7901L137.218 95.3567L140.616 95.4244L181.216 93.4749L208.673 92.1557C214.988 92.1557 218.262 108.033 218.262 108.033C224.109 122.041 221.653 131.264 221.653 131.264Z" fill="#3F3D56"/>
<path opacity="0.1" d="M89.9934 117.513C96.1621 115.035 99.9029 109.901 98.3488 106.045C96.7947 102.19 90.5342 101.073 84.3655 103.551C78.1969 106.029 74.456 111.164 76.0101 115.019C77.5642 118.875 83.8247 119.992 89.9934 117.513Z" fill="black"/>
<path d="M89.526 116.578C95.6947 114.1 99.4355 108.966 97.8814 105.11C96.3274 101.255 90.0668 100.138 83.8981 102.616C77.7295 105.094 73.9886 110.229 75.5427 114.084C77.0968 117.94 83.3573 119.057 89.526 116.578Z" fill="#F2F2F2"/>
<path opacity="0.1" d="M19.1987 100.804C19.0794 103.372 17.9264 106.613 15.8519 109.735C12.5146 114.759 7.93768 117.717 5.11951 116.851C5.54048 115.917 5.90532 115.27 5.90532 115.27C7.93768 103.764 18.49 100.979 19.1987 100.804Z" fill="black"/>
<path d="M18.4971 100.337C18.3778 102.905 17.2249 106.146 15.1504 109.268C11.813 114.292 7.23614 117.25 4.41797 116.384C4.83894 115.45 5.20378 114.804 5.20378 114.804C7.23614 103.297 17.7885 100.512 18.4971 100.337Z" fill="#F2F2F2"/>
<path d="M51.2767 107.33H32.8007L31.8652 104.761H54.317L51.2767 107.33Z" fill="#36334A"/>
<path d="M47.0669 126.242H16.6635V135.114H47.0669V126.242Z" fill="#36334A"/>
<path opacity="0.1" d="M79.8091 143.753C82.134 143.753 84.0188 141.871 84.0188 139.55C84.0188 137.229 82.134 135.348 79.8091 135.348C77.4841 135.348 75.5994 137.229 75.5994 139.55C75.5994 141.871 77.4841 143.753 79.8091 143.753Z" fill="black"/>
<path d="M79.3414 143.053C81.6664 143.053 83.5511 141.171 83.5511 138.85C83.5511 136.529 81.6664 134.647 79.3414 134.647C77.0165 134.647 75.1317 136.529 75.1317 138.85C75.1317 141.171 77.0165 143.053 79.3414 143.053Z" fill="#F2F2F2"/>
<path opacity="0.1" d="M3.33264 140.718C4.49512 140.718 5.4375 138.732 5.4375 136.282C5.4375 133.832 4.49512 131.845 3.33264 131.845C2.17016 131.845 1.22778 133.832 1.22778 136.282C1.22778 138.732 2.17016 140.718 3.33264 140.718Z" fill="black"/>
<path d="M2.6311 140.484C3.79358 140.484 4.73596 138.498 4.73596 136.048C4.73596 133.598 3.79358 131.612 2.6311 131.612C1.46862 131.612 0.526245 133.598 0.526245 136.048C0.526245 138.498 1.46862 140.484 2.6311 140.484Z" fill="#F2F2F2"/>
<path d="M188.092 117.372C185.52 125.31 185.286 137.685 185.286 137.685L184.35 140.954L138.745 146.09C138.745 146.09 138.979 123.209 139.681 112.469C140.174 104.892 138.343 98.4784 137.218 95.3567L140.616 95.4244L181.216 93.4749C187.999 98.2216 190.401 110.244 188.092 117.372Z" fill="#36334A"/>
<path d="M177.694 103.059C177.535 103.07 177.379 103.114 177.237 103.188C177.096 103.262 176.971 103.365 176.871 103.49C176.772 103.615 176.7 103.76 176.659 103.914C176.619 104.069 176.611 104.23 176.637 104.388C176.659 104.52 176.714 104.644 176.795 104.751C176.877 104.857 176.983 104.941 177.105 104.997C177.86 105.373 182.889 104.53 184.795 104.194C185.077 104.148 185.336 104.011 185.531 103.802C185.727 103.594 185.848 103.327 185.875 103.043C185.899 102.711 185.777 102.429 185.291 102.429L177.694 103.059Z" fill="#F2F2F2"/>
<path d="M137.108 94.4905C137.108 94.4905 138.277 99.6272 143.89 97.9928L145.761 90.7548L142.019 88.6534L137.108 94.4905Z" fill="#36334A"/>
<path d="M143.982 84.0608C146.554 82.5385 150.635 81.2077 154.672 84.4041C155.512 85.0663 156.105 85.9915 156.355 87.0307C156.604 88.07 156.497 89.1629 156.049 90.1337C154.728 92.9892 151.592 96.0875 144.269 92.3775C143.55 92.0133 142.937 91.4716 142.487 90.8038L142.45 90.7478C142.095 90.2129 141.853 89.6117 141.739 88.9807C141.624 88.3498 141.639 87.7021 141.782 87.0769C141.925 86.4518 142.194 85.8621 142.572 85.3437C142.95 84.8253 143.43 84.3888 143.982 84.0608Z" fill="#36334A"/>
<path d="M115.942 147.139C118.526 147.139 120.62 145.048 120.62 142.469C120.62 139.89 118.526 137.799 115.942 137.799C113.359 137.799 111.265 139.89 111.265 142.469C111.265 145.048 113.359 147.139 115.942 147.139Z" fill="#F2F2F2"/>
<path d="M212.532 138.733C213.953 138.733 215.105 136.643 215.105 134.064C215.105 131.485 213.953 129.394 212.532 129.394C211.111 129.394 209.959 131.485 209.959 134.064C209.959 136.643 211.111 138.733 212.532 138.733Z" fill="#F2F2F2"/>
<path d="M116.059 128.11H115.592C114.042 128.11 112.785 129.364 112.785 130.912V133.48C112.785 135.027 114.042 136.282 115.592 136.282H116.059C117.609 136.282 118.866 135.027 118.866 133.48V130.912C118.866 129.364 117.609 128.11 116.059 128.11Z" fill="#36334A"/>
<path d="M212.532 119.121C212.747 119.121 212.96 119.163 213.159 119.245C213.357 119.327 213.538 119.448 213.69 119.599C213.842 119.751 213.962 119.931 214.045 120.13C214.127 120.328 214.169 120.54 214.169 120.755V124.491C214.169 125.234 213.873 125.946 213.347 126.472C212.821 126.997 212.107 127.293 211.363 127.293C210.929 127.293 210.512 127.12 210.205 126.814C209.898 126.507 209.726 126.092 209.726 125.658V121.922C209.726 121.179 210.021 120.467 210.548 119.941C211.074 119.416 211.788 119.121 212.532 119.121Z" fill="#36334A"/>
<path d="M212.532 149.009C211.788 149.009 211.074 148.714 210.548 148.188C210.021 147.663 209.726 146.95 209.726 146.207V143.639C209.726 142.896 210.021 142.183 210.548 141.657C211.074 141.132 211.788 140.837 212.532 140.837C214.076 140.837 213.935 142.098 213.935 143.639V146.207C213.933 147.748 214.08 149.009 212.532 149.009Z" fill="#36334A"/>
<path d="M205.516 129.861C206.26 129.861 206.974 130.156 207.5 130.681C208.027 131.207 208.322 131.92 208.322 132.663V136.165C208.322 136.66 208.125 137.135 207.774 137.486C207.423 137.836 206.947 138.033 206.451 138.033C205.707 138.033 204.993 137.738 204.467 137.212C203.94 136.687 203.645 135.974 203.645 135.231V131.729C203.645 131.233 203.842 130.758 204.193 130.408C204.544 130.058 205.02 129.861 205.516 129.861Z" fill="#36334A"/>
<path d="M221.536 132.898C221.536 133.3 221.536 133.702 221.51 134.099C221.451 135.644 221.264 137.181 220.954 138.696C220.799 138.722 220.643 138.735 220.486 138.735C219.742 138.735 219.028 138.44 218.502 137.915C217.975 137.389 217.68 136.677 217.68 135.934V133.365C217.68 132.622 217.975 131.91 218.502 131.384C219.028 130.859 219.742 130.564 220.486 130.564C220.731 130.563 220.975 130.595 221.211 130.659C221.295 130.683 221.379 130.708 221.459 130.739C221.51 131.448 221.536 132.17 221.536 132.898Z" fill="#36334A"/>
<path d="M127.87 138.033H127.402C125.852 138.033 124.596 139.287 124.596 140.835V143.403C124.596 144.95 125.852 146.205 127.402 146.205H127.87C129.42 146.205 130.677 144.95 130.677 143.403V140.835C130.677 139.287 129.42 138.033 127.87 138.033Z" fill="#36334A"/>
<path d="M104.95 138.033H104.483C102.933 138.033 101.676 139.287 101.676 140.835V143.403C101.676 144.95 102.933 146.205 104.483 146.205H104.95C106.5 146.205 107.757 144.95 107.757 143.403V140.835C107.757 139.287 106.5 138.033 104.95 138.033Z" fill="#36334A"/>
<path d="M116.176 150.174H115.709C114.159 150.174 112.902 151.428 112.902 152.976V155.544C112.902 157.091 114.159 158.346 115.709 158.346H116.176C117.726 158.346 118.983 157.091 118.983 155.544V152.976C118.983 151.428 117.726 150.174 116.176 150.174Z" fill="#36334A"/>
<path d="M197.625 48.0998C197.623 48.5451 197.544 48.9868 197.391 49.405C197.124 50.1481 196.637 50.7922 195.993 51.2512C195.35 51.7101 194.582 51.962 193.791 51.9732C193.001 51.9844 192.225 51.7543 191.569 51.3137C190.913 50.8731 190.408 50.243 190.12 49.5077C189.944 49.0616 189.853 48.5864 189.853 48.1068C189.853 47.0789 190.262 46.0931 190.99 45.3662C191.718 44.6393 192.706 44.231 193.736 44.231C194.765 44.231 195.753 44.6393 196.481 45.3662C197.209 46.0931 197.618 47.0789 197.618 48.1068L197.625 48.0998Z" fill="#FF6584"/>
<path d="M190.641 49.0664C190.394 48.6214 190.237 48.132 190.179 47.6264C190.121 47.1207 190.163 46.6085 190.304 46.1192C190.444 45.6298 190.679 45.1729 190.997 44.7744C191.314 44.3759 191.706 44.0437 192.152 43.7967C192.585 43.5518 193.062 43.3932 193.556 43.3298C193.021 43.3108 192.488 43.4025 191.99 43.599C191.492 43.7956 191.04 44.0928 190.663 44.4719C190.286 44.851 189.991 45.3039 189.798 45.8022C189.605 46.3004 189.516 46.8332 189.539 47.3671C189.562 47.9009 189.695 48.4244 189.93 48.9045C190.165 49.3846 190.496 49.8111 190.904 50.157C191.312 50.503 191.787 50.761 192.3 50.9148C192.813 51.0687 193.352 51.1151 193.883 51.051C193.217 51.0258 192.57 50.8299 192.002 50.4823C191.434 50.1348 190.966 49.6471 190.641 49.0664Z" fill="#FF6584"/>
<path d="M199.29 53.4979H188.89V69.6946H199.29V53.4979Z" fill="#FF6584"/>
<path opacity="0.1" d="M199.524 53.031H189.124V69.2277H199.524V53.031Z" fill="black"/>
<path d="M172.451 112.261C172.451 112.261 171.342 115.296 168.709 115.721C166.075 116.146 164.555 116.823 164.555 116.823L170.795 120.837L174.123 120.421C174.123 120.421 174.537 116.13 175.924 115.161C177.311 114.192 172.451 112.261 172.451 112.261Z" fill="#FBBEBE"/>
<path d="M217.523 112.261C217.523 112.261 218.631 115.296 221.265 115.721C223.898 116.146 225.423 116.83 225.423 116.83L219.183 120.844L215.855 120.428C215.855 120.428 215.441 116.137 214.055 115.168C212.668 114.199 217.523 112.261 217.523 112.261Z" fill="#FBBEBE"/>
<path d="M187.157 85.4057C187.157 85.4057 185.492 86.2369 184.937 87.897C184.937 87.897 181.897 88.8659 180.223 91.4973C180.223 91.4973 178.143 93.7107 177.865 94.8197C177.587 95.9288 174.399 102.581 174.399 102.581C174.399 102.581 171.211 112.961 169.546 114.07C169.546 114.07 174.815 112.961 175.786 118.222C175.786 118.222 177.035 118.222 178.422 113.377C179.809 108.532 183.134 102.581 183.134 102.581C183.134 102.581 184.245 98.4271 185.216 97.7359C186.186 97.0448 187.711 93.8601 189.098 94.689C190.485 95.5179 199.636 94.5512 199.636 94.5512C199.636 94.5512 205.043 97.0425 205.181 98.7049C205.319 100.367 206.292 100.503 206.43 101.887C206.568 103.272 211.7 114.208 211.7 114.208C211.7 114.208 212.67 117.243 212.946 117.944C212.946 117.944 215.998 110.608 220.018 114.759C220.018 114.759 219.88 111.99 218.632 110.323C217.383 108.656 211.975 95.6486 211.975 95.6486C211.975 95.6486 211.421 93.7107 210.867 93.1574C210.313 92.604 206.014 88.1748 204.492 88.1748C204.492 88.1748 203.659 86.0968 202.688 85.8213L187.157 85.4057Z" fill="#696880"/>
<path d="M174.677 119.459C173.594 119.893 172.416 120.04 171.259 119.884C170.102 119.729 169.005 119.277 168.075 118.572C167.172 117.88 166.182 117.308 165.131 116.87C163.662 116.277 161.901 115.836 161.365 116.83C160.395 118.628 173.153 123.059 173.153 123.059C173.153 123.059 174.815 122.088 174.677 119.459Z" fill="#696880"/>
<path d="M215.303 119.459C216.387 119.893 217.565 120.04 218.722 119.884C219.879 119.729 220.976 119.277 221.906 118.572C222.809 117.88 223.799 117.308 224.85 116.87C226.319 116.277 228.08 115.836 228.615 116.83C229.586 118.628 216.828 123.059 216.828 123.059C216.828 123.059 215.165 122.088 215.303 119.459Z" fill="#696880"/>
<path d="M191.689 62.6364C191.636 63.1174 191.479 63.6381 191.067 63.8949C190.73 64.1051 190.305 64.0864 189.917 64.1681C189.509 64.2691 189.13 64.4646 188.812 64.7388C188.494 65.013 188.245 65.3582 188.085 65.7464C187.775 66.5301 187.714 67.3904 187.912 68.2097C188.003 68.6118 188.121 69.0073 188.265 69.3934C188.675 70.5422 189.166 71.6792 189.924 72.6365C190.572 73.3949 191.302 74.0807 192.099 74.6818C192.592 75.0834 193.102 75.4943 193.71 75.6835C194.123 75.7925 194.548 75.8482 194.975 75.8492C195.501 75.8749 196.06 75.8913 196.516 75.6298C197.218 75.2258 197.429 74.3316 197.807 73.6172C198.133 73.0078 198.614 72.4941 198.916 71.873C199.13 71.3859 199.287 70.8759 199.384 70.3531L200.032 67.4789C200.265 66.4375 200.481 65.2608 199.891 64.3666C199.85 64.2927 199.79 64.2308 199.718 64.1868C199.606 64.1415 199.484 64.1285 199.365 64.1494C198.619 64.1995 197.875 64.0298 197.225 63.6614C197.122 63.6104 197.031 63.5389 196.956 63.4513C196.861 63.3034 196.804 63.1341 196.79 62.9586C196.727 62.6021 196.627 62.2531 196.491 61.9173C196.452 61.7974 196.382 61.6902 196.287 61.6068C196.189 61.5445 196.076 61.5069 195.96 61.4971C194.959 61.3341 193.949 61.2281 192.936 61.1795C192.601 61.1655 192.101 61.0324 191.874 61.3243C191.647 61.6161 191.727 62.2862 191.689 62.6364Z" fill="#FBBEBE"/>
<path opacity="0.1" d="M191.689 62.6364C191.636 63.1174 191.479 63.6381 191.067 63.8949C190.73 64.1051 190.305 64.0864 189.917 64.1681C189.509 64.2691 189.13 64.4646 188.812 64.7388C188.494 65.013 188.245 65.3582 188.085 65.7464C187.775 66.5301 187.714 67.3904 187.912 68.2097C188.003 68.6118 188.121 69.0073 188.265 69.3934C188.675 70.5422 189.166 71.6792 189.924 72.6365C190.572 73.3949 191.302 74.0807 192.099 74.6818C192.592 75.0834 193.102 75.4943 193.71 75.6835C194.123 75.7925 194.548 75.8482 194.975 75.8492C195.501 75.8749 196.06 75.8913 196.516 75.6298C197.218 75.2258 197.429 74.3316 197.807 73.6172C198.133 73.0078 198.614 72.4941 198.916 71.873C199.13 71.3859 199.287 70.8759 199.384 70.3531L200.032 67.4789C200.265 66.4375 200.481 65.2608 199.891 64.3666C199.85 64.2927 199.79 64.2308 199.718 64.1868C199.606 64.1415 199.484 64.1285 199.365 64.1494C198.619 64.1995 197.875 64.0298 197.225 63.6614C197.122 63.6104 197.031 63.5389 196.956 63.4513C196.861 63.3034 196.804 63.1341 196.79 62.9586C196.727 62.6021 196.627 62.2531 196.491 61.9173C196.452 61.7974 196.382 61.6902 196.287 61.6068C196.189 61.5445 196.076 61.5069 195.96 61.4971C194.959 61.3341 193.949 61.2281 192.936 61.1795C192.601 61.1655 192.101 61.0324 191.874 61.3243C191.647 61.6161 191.727 62.2862 191.689 62.6364Z" fill="black"/>
<path d="M189.811 64.2895C189.269 64.1284 188.707 64.0397 188.141 64.0257C186.804 63.993 185.375 64.4553 184.6 65.5456C184.077 66.3317 183.884 67.2923 184.065 68.219C184.252 69.1389 184.671 69.9962 185.281 70.7103C185.634 71.0849 185.948 71.4949 186.217 71.9337C186.586 72.6342 186.595 73.47 186.684 74.2686C186.918 76.1621 187.727 77.9459 188.05 79.8278C188.373 81.7097 188.092 83.8951 186.602 85.0952C186.352 85.296 186.05 85.5061 186.029 85.826C185.994 86.3373 186.661 86.5568 187.173 86.6035C188.705 86.7506 190.277 86.893 191.764 86.4984C192.381 86.335 192.973 86.0805 193.6 85.9637C195.193 85.6672 196.792 86.2743 198.383 86.5684C199.535 86.7571 200.702 86.8516 201.87 86.851C202.142 86.8751 202.417 86.8392 202.674 86.7459C202.801 86.6961 202.909 86.6073 202.982 86.4923C203.055 86.3773 203.09 86.2421 203.081 86.1061C203.03 85.9297 202.935 85.769 202.805 85.6392C202.001 84.6445 201.755 83.3277 201.535 82.0692L200.81 77.8315C200.415 75.5714 200.048 73.1175 201.119 71.0862C201.891 69.6269 203.308 68.5996 204.122 67.1637C204.41 66.729 204.54 66.2092 204.491 65.6904C204.37 64.9689 203.717 64.4529 203.048 64.1494C201.763 63.5757 200.305 63.5229 198.981 64.0023C199.005 65.0133 198.747 66.036 198.579 67.0376L198.296 68.672C198.153 69.6351 197.942 70.5869 197.665 71.5205C197.562 71.8932 197.39 72.2432 197.157 72.5525C196.907 72.8297 196.602 73.0516 196.261 73.2039C195.522 73.5643 194.71 73.7489 193.888 73.7432C193.532 73.7504 193.177 73.6967 192.84 73.5845C192.283 73.3837 191.832 72.9704 191.397 72.5688C191.254 72.4475 191.126 72.3095 191.016 72.1579C190.901 71.9629 190.814 71.7531 190.756 71.5345C190.567 70.9636 190.418 70.38 190.312 69.788C190.239 69.3351 190.218 68.8751 190.185 68.4175C190.082 67.0913 190.085 65.59 189.811 64.2895Z" fill="#F2F2F2"/>
<path d="M188.403 91.0817C188.403 91.0817 187.849 98.4177 191.315 99.6645C194.781 100.911 191.731 93.573 191.731 93.573L190.623 91.3572L188.403 91.0817Z" fill="#FBBEBE"/>
<path d="M200.191 91.0817C200.191 91.0817 200.745 98.4177 197.279 99.6645C193.813 100.911 196.863 93.573 196.863 93.573L197.971 91.3572L200.191 91.0817Z" fill="#FBBEBE"/>
<path opacity="0.1" d="M185.354 66.58L184.245 68.3801C184.245 68.3801 185.216 74.6094 185.354 75.7162C185.472 76.5132 185.658 77.2989 185.908 78.065C185.908 78.065 186.046 81.3875 186.046 82.6319C186.046 83.8764 186.747 85.9544 186.747 85.9544C186.845 87.1313 187.08 88.2926 187.449 89.4146C188.003 90.9392 188.56 92.7371 188.56 92.7371C188.56 92.7371 189.262 90.7991 192.026 93.706C192.335 93.3921 192.508 92.9695 192.508 92.5293C192.508 92.0891 192.335 91.6665 192.026 91.3525C192.026 91.3525 191.193 87.6168 191.193 85.6789C191.193 83.741 189.669 74.4717 189.669 74.4717C189.669 74.4717 188.682 63.9486 185.354 66.58Z" fill="black"/>
<path d="M185.08 66.4422L183.971 68.24C183.971 68.24 184.942 74.4694 185.08 75.5784C185.2 76.3762 185.386 77.1626 185.637 77.9296C185.637 77.9296 185.782 81.252 185.782 82.5012C185.782 83.7503 186.483 85.8236 186.483 85.8236C186.581 87.0004 186.817 88.1617 187.185 89.2838C187.739 90.8061 188.293 92.6063 188.293 92.6063C188.293 92.6063 188.995 90.6684 191.759 93.5752C192.069 93.2616 192.243 92.8389 192.243 92.3985C192.243 91.9581 192.069 91.5354 191.759 91.2217C191.759 91.2217 190.927 87.486 190.927 85.5458C190.927 83.6055 189.402 74.3386 189.402 74.3386C189.402 74.3386 188.403 63.8225 185.08 66.4422Z" fill="#F2F2F2"/>
<path opacity="0.1" d="M203.378 65.4709L204.08 66.2951C204.08 66.2951 204.898 71.0091 203.095 76.9606L202.541 82.3611C202.541 82.3611 201.57 86.928 201.43 88.037C201.29 89.1461 201.292 89.2815 201.016 89.6971C200.931 89.7941 200.884 89.9185 200.884 90.0473C200.884 90.1761 200.931 90.3006 201.016 90.3976L200.183 93.4445C200.183 93.4445 198.935 91.9222 196.441 93.8601C196.441 93.8601 195.74 92.7511 196.303 91.7821C196.867 90.8132 196.858 90.3976 196.72 90.122C196.582 89.8465 197.274 88.4596 197.274 88.1841C197.274 87.9086 198.245 81.5392 198.245 81.5392C198.245 81.5392 198.661 75.3099 199.077 73.2342C199.332 71.9571 199.325 69.1086 199.283 67.1053C199.239 65.0203 201.767 63.8879 203.259 65.3565C203.299 65.3869 203.338 65.4289 203.378 65.4709Z" fill="black"/>
<path d="M203.79 65.1954L204.491 66.0196C204.491 66.0196 205.308 70.7313 203.507 76.6851L202.952 82.0832C202.952 82.0832 201.982 86.6525 201.842 87.7592C201.701 88.8659 201.704 89.006 201.425 89.4193C201.342 89.5169 201.296 89.6411 201.296 89.7695C201.296 89.8979 201.342 90.0221 201.425 90.1197L200.595 93.155C200.595 93.155 199.346 91.6327 196.853 93.5706C196.853 93.5706 196.151 92.4639 196.715 91.4949C197.279 90.526 197.269 90.1104 197.129 89.8325C196.989 89.5547 197.686 88.1725 197.686 87.8946C197.686 87.6168 198.656 81.2497 198.656 81.2497C198.656 81.2497 199.073 75.0204 199.486 72.9447C199.9 70.8691 199.627 64.6397 199.627 64.6397C199.627 64.6397 201.853 63.1221 203.79 65.1954Z" fill="#F2F2F2"/>
<path d="M194.505 63.2575C197.569 63.2575 200.053 60.778 200.053 57.7193C200.053 54.6606 197.569 52.1811 194.505 52.1811C191.441 52.1811 188.958 54.6606 188.958 57.7193C188.958 60.778 191.441 63.2575 194.505 63.2575Z" fill="#FBBEBE"/>
<path opacity="0.1" d="M197.398 49.405C197.131 50.1481 196.644 50.7922 196.001 51.2512C195.357 51.7101 194.589 51.962 193.798 51.9732C193.008 51.9844 192.233 51.7543 191.576 51.3137C190.92 50.8731 190.415 50.243 190.127 49.5077C192.29 48.6392 194.505 49.4143 194.505 49.4143C195.604 49.0244 196.568 49.0618 197.398 49.405Z" fill="black"/>
<path d="M194.505 49.6922C194.505 49.6922 183.829 45.9564 186.462 64.0887C186.462 64.0887 188.82 65.611 190.623 64.6421C190.623 64.6421 189.374 52.034 194.227 52.599C199.08 53.164 198.249 64.3642 198.249 64.3642C198.249 64.3642 201.023 65.1954 201.853 63.6638C202.684 62.1321 201.577 47.1986 194.505 49.6922Z" fill="#FF6584"/>
<path opacity="0.1" d="M194.227 51.7678C190.896 51.3872 190.44 57.1986 190.485 60.8853C190.527 57.222 191.144 52.2464 194.227 52.599C197.693 52.9936 198.259 58.8213 198.301 62.1228C198.338 59.0945 198.006 52.1998 194.227 51.7678Z" fill="black"/>
<path opacity="0.1" d="M186.462 63.2575C186.221 61.6663 186.083 60.0613 186.048 58.4524C186.037 60.3361 186.175 62.2176 186.462 64.0794C186.462 64.0794 188.82 65.6017 190.623 64.6327C190.623 64.6327 190.592 64.3339 190.56 63.8319C188.766 64.7565 186.462 63.2575 186.462 63.2575Z" fill="black"/>
<path opacity="0.1" d="M201.853 62.8419C201.079 64.2591 198.621 63.6381 198.287 63.5424C198.27 64.056 198.249 64.3619 198.249 64.3619C198.249 64.3619 201.023 65.1931 201.853 63.6614C202.026 63.3462 202.115 62.4613 202.087 61.2776C202.064 62.0504 201.982 62.6061 201.853 62.8419Z" fill="black"/>
<path d="M230.285 152.439C230.926 151.255 230.199 149.803 229.364 148.747C228.529 147.692 227.509 146.592 227.53 145.245C227.563 143.312 229.619 142.17 231.272 141.145C232.492 140.384 233.617 139.481 234.624 138.455C235.044 138.06 235.393 137.595 235.653 137.08C235.992 136.324 235.983 135.462 235.962 134.633C235.891 131.873 235.755 129.116 235.552 126.361" stroke="#3F3D56" stroke-width="4" stroke-miterlimit="10"/>
<path d="M238.663 126.211C238.639 125.706 238.489 125.215 238.226 124.782C237.962 124.35 237.593 123.991 237.154 123.739L236.478 125.074L236.499 123.456C236.176 123.362 235.839 123.322 235.503 123.337C234.906 123.365 234.331 123.569 233.85 123.923C233.369 124.278 233.004 124.766 232.802 125.327C232.599 125.888 232.568 126.497 232.711 127.076C232.855 127.655 233.167 128.179 233.609 128.58C234.051 128.982 234.602 129.244 235.193 129.333C235.784 129.423 236.388 129.335 236.928 129.081C237.469 128.828 237.923 128.42 238.231 127.909C238.54 127.398 238.69 126.807 238.663 126.211Z" fill="#F2D41D"/>
<path d="M233.274 146.63C232.97 147.22 232.478 147.693 231.877 147.976C231.275 148.26 230.597 148.337 229.947 148.196C229.297 148.055 228.711 147.703 228.282 147.197C227.852 146.69 227.602 146.055 227.57 145.392C227.549 144.974 227.616 144.557 227.767 144.166C227.987 143.595 228.377 143.104 228.884 142.759C229.391 142.413 229.992 142.23 230.605 142.234C231.219 142.238 231.817 142.427 232.32 142.778C232.823 143.129 233.207 143.625 233.422 144.199L231.534 145.733L233.609 145.252C233.61 145.731 233.495 146.204 233.274 146.63Z" fill="#F2D41D"/>
<path d="M231.782 140.772C231.386 140.79 230.989 140.73 230.616 140.596C230.242 140.461 229.899 140.255 229.606 139.988C229.312 139.721 229.074 139.399 228.906 139.04C228.737 138.682 228.641 138.293 228.622 137.897C228.599 137.425 228.689 136.955 228.884 136.524C229.066 136.122 229.334 135.763 229.669 135.475C230.004 135.186 230.398 134.974 230.823 134.853L230.809 136.097L231.492 134.743C232.292 134.706 233.075 134.988 233.667 135.527C234.259 136.066 234.612 136.818 234.649 137.617C234.668 137.965 234.624 138.314 234.521 138.647C234.338 139.239 233.977 139.76 233.487 140.14C232.997 140.521 232.402 140.741 231.782 140.772Z" fill="#F2D41D"/>
<path d="M239.119 135.899C238.722 135.917 238.326 135.858 237.952 135.723C237.579 135.589 237.236 135.382 236.942 135.115C236.649 134.848 236.411 134.526 236.242 134.167C236.074 133.809 235.977 133.42 235.959 133.025C235.934 132.532 236.032 132.041 236.244 131.596C236.421 131.221 236.673 130.887 236.985 130.614C237.297 130.342 237.662 130.136 238.057 130.01C238.451 129.884 238.868 129.84 239.281 129.882C239.693 129.924 240.093 130.05 240.454 130.253L239.921 131.712L241.018 130.659C241.606 131.197 241.958 131.946 241.995 132.742C242.009 133.021 241.983 133.301 241.918 133.573C241.768 134.212 241.414 134.785 240.909 135.204C240.404 135.624 239.775 135.868 239.119 135.899Z" fill="#F2D41D"/>
<path opacity="0.1" d="M238.258 127.015C237.556 127.092 236.881 127.307 236.181 127.351C235.482 127.395 234.713 127.227 234.27 126.683C234.065 126.368 233.878 126.04 233.712 125.703C233.52 125.405 233.26 125.159 232.951 124.986C232.713 125.451 232.601 125.97 232.626 126.492C232.659 127.224 232.958 127.92 233.468 128.448C233.977 128.977 234.662 129.302 235.394 129.363C236.126 129.424 236.855 129.216 237.445 128.779C238.035 128.343 238.446 127.706 238.599 126.989C238.485 126.994 238.37 127.003 238.258 127.015Z" fill="black"/>
<path opacity="0.1" d="M239.119 135.899C238.722 135.917 238.326 135.858 237.952 135.723C237.579 135.589 237.236 135.382 236.942 135.115C236.649 134.848 236.411 134.526 236.242 134.168C236.074 133.809 235.977 133.42 235.959 133.025C235.934 132.532 236.032 132.041 236.244 131.596C236.484 131.757 236.691 131.963 236.852 132.203C237.068 132.527 237.196 132.903 237.451 133.2C237.919 133.751 238.726 133.933 239.455 133.9C240.185 133.867 240.887 133.667 241.614 133.594C241.715 133.594 241.817 133.578 241.918 133.576C241.768 134.214 241.413 134.786 240.908 135.205C240.403 135.624 239.775 135.868 239.119 135.899Z" fill="black"/>
<path opacity="0.1" d="M231.782 140.772C231.386 140.79 230.989 140.73 230.616 140.596C230.242 140.461 229.899 140.255 229.606 139.988C229.312 139.721 229.074 139.399 228.906 139.04C228.737 138.682 228.641 138.293 228.622 137.897C228.599 137.425 228.689 136.955 228.884 136.524C229.13 136.689 229.343 136.896 229.516 137.136C229.75 137.468 229.897 137.837 230.171 138.154C230.681 138.722 231.539 138.92 232.311 138.904C233.082 138.887 233.779 138.703 234.523 138.647C234.34 139.239 233.979 139.761 233.489 140.141C232.998 140.521 232.402 140.741 231.782 140.772Z" fill="black"/>
<path opacity="0.1" d="M233.274 146.63C232.97 147.22 232.478 147.693 231.877 147.976C231.275 148.26 230.597 148.337 229.947 148.196C229.297 148.055 228.711 147.703 228.282 147.197C227.852 146.69 227.602 146.055 227.57 145.392C227.549 144.974 227.616 144.557 227.767 144.166C228.015 144.33 228.238 144.529 228.428 144.757C228.716 145.107 228.896 145.504 229.238 145.829C229.855 146.436 230.854 146.686 231.74 146.709C232.253 146.712 232.765 146.685 233.274 146.63Z" fill="black"/>
<path d="M225.729 151.075C225.729 151.075 228.113 151.003 228.833 150.491C229.553 149.98 232.5 149.371 232.68 150.19C232.86 151.01 236.263 154.267 233.571 154.288C230.879 154.309 227.315 153.87 226.597 153.433C225.879 152.997 225.729 151.075 225.729 151.075Z" fill="#656380"/>
<path opacity="0.2" d="M233.618 154.003C230.926 154.024 227.362 153.583 226.644 153.148C226.099 152.815 225.882 151.624 225.809 151.073H225.729C225.729 151.073 225.879 152.994 226.597 153.431C227.315 153.868 230.879 154.306 233.571 154.285C234.348 154.285 234.617 154.003 234.603 153.585C234.495 153.844 234.193 153.998 233.618 154.003Z" fill="black"/>
</g>
<defs>
<clipPath id="clip0_3_94">
<rect width="242" height="165" fill="white"/>
</clipPath>
</defs>
</svg>
